# xmcd
#
# Track frame offsets: 
#        183
#        11500
#        23063
#        36408
#        49090
#        59525
#        73620
#        86060
#        98285
#        111430
#        124615
#        137735
#        150053
#        162723
#        171495
#        181770
#        193235
#        207045
#        217543
#        229018
#        241323
#        253025
#        263043
#        276110
#
# Disc length: 3810 seconds
#
# Revision: 3
# Processed by: cddbd v1.5.2PL0 Copyright (c) Steve Scherf et al.
# Submitted via: ExactAudioCopy v1.0b1
#
DISCID=470ee018
DTITLE=Sonny Boy Williamson ll - The Chess Years - Disc 2
DYEAR=1991
DGENRE=Blues
TTITLE0=Your Funeral And My Trial (mono)
TTITLE1=She Got Next To Me (mono)
TTITLE2=Wake Up Baby (mono)
TTITLE3=Keep Your Hand Out Of My Pocket (mono)
TTITLE4=Let Your Conscience Be Your Guide (mono)
TTITLE5=Unseeing Eye (mono)
TTITLE6=The Goat (mono)
TTITLE7=Cool Disposition (mono)
TTITLE8=I Never Do Wrong (mono)
TTITLE9=It's Sad To Be Alone (mono)
TTITLE10=Open Road (mono)
TTITLE11=Santa Claus (mono)
TTITLE12=I Can't Do Without You (mono)
TTITLE13=Checkin' Up On My Baby (mono)
TTITLE14=Temperature 110 (mono)
TTITLE15=Peach Tree (mono)
TTITLE16=Lonesome Cabin (mono)
TTITLE17=Somebody Help Me (mono)
TTITLE18=Down Child (mono)
TTITLE19=Trust Me Baby (mono)
TTITLE20=This Old Life (mono)
TTITLE21=Too Close Together (mono)
TTITLE22=Too Young To Die (mono)
TTITLE23=She's My Baby (mono)
EXTD=
EXTT0=
EXTT1=
EXTT2=
EXTT3=
EXTT4=
EXTT5=
EXTT6=
EXTT7=
EXTT8=
EXTT9=
EXTT10=
EXTT11=
EXTT12=
EXTT13=
EXTT14=
EXTT15=
EXTT16=
EXTT17=
EXTT18=
EXTT19=
EXTT20=
EXTT21=
EXTT22=
EXTT23=
PLAYORDER=
